<?xml version="1.0" encoding="UTF-8"?>
<!DOCTYPE svg PUBLIC "-//W3C//DTD SVG 1.1//EN" "http://www.w3.org/Graphics/SVG/1.1/DTD/svg11.dtd">
<svg width="942pt" height="961pt" viewBox="0 0 942 961" version="1.1" xmlns="http://www.w3.org/2000/svg">
<path fill="#ffffff" opacity="1.00" d=" M 0.00 0.00 L 942.00 0.00 L 942.00 961.00 L 0.00 961.00 L 0.00 0.00 M 518.77 4.67 C 483.93 13.64 447.89 16.28 412.72 23.56 C 402.39 25.82 391.88 27.85 382.21 32.32 C 370.14 37.85 358.90 45.36 346.02 49.03 C 329.56 53.84 312.08 52.96 295.56 57.43 C 274.81 64.17 256.25 76.54 240.47 91.45 C 225.09 105.87 211.94 122.40 198.82 138.83 C 156.04 191.69 112.01 243.69 63.99 291.89 C 65.19 284.96 66.98 278.02 66.72 270.93 C 66.40 263.83 63.03 257.21 58.59 251.79 C 60.00 272.93 55.74 293.96 48.97 313.90 C 43.00 332.51 34.99 350.72 32.66 370.29 C 32.11 376.67 31.78 383.21 33.17 389.50 C 36.54 390.42 41.28 390.89 43.01 387.05 C 45.38 379.58 42.16 371.75 43.18 364.13 C 47.11 367.64 49.30 372.77 49.88 377.95 C 50.56 385.40 48.28 392.74 45.67 399.63 C 39.05 416.17 29.94 431.75 25.17 449.01 C 18.75 471.85 23.34 495.71 22.74 519.00 C 22.24 532.03 26.49 545.03 23.97 558.01 C 22.84 564.10 18.78 569.45 13.12 572.00 C 13.21 551.90 15.59 531.87 16.94 511.83 C 19.16 483.00 21.43 454.15 21.59 425.23 C 21.58 408.42 21.40 391.36 17.04 375.00 C 16.11 371.67 15.53 367.66 12.46 365.55 C 8.81 364.42 5.48 366.68 2.54 368.54 C 2.43 459.36 2.55 550.19 2.48 641.02 C 2.38 643.90 3.03 646.72 3.67 649.51 C 11.69 687.07 18.88 724.90 22.53 763.17 C 22.95 767.55 27.38 769.94 29.61 773.43 C 43.78 790.91 53.77 811.35 61.74 832.29 C 77.30 873.56 85.96 916.96 99.14 958.98 C 104.36 959.01 109.59 959.01 114.81 958.99 C 103.00 931.36 95.06 902.20 89.39 872.74 C 114.89 888.08 126.68 917.25 148.78 936.26 C 160.35 946.52 175.30 952.59 190.67 953.87 C 190.71 955.56 190.76 957.26 190.81 958.97 C 202.81 958.98 214.80 959.09 226.79 958.92 C 207.67 950.75 189.21 940.89 172.42 928.56 C 141.70 906.29 115.97 877.68 94.39 846.63 C 94.06 836.47 92.78 826.35 90.45 816.45 C 81.97 779.87 63.21 746.71 53.83 710.41 C 49.58 694.44 52.86 677.64 49.23 661.59 C 46.28 647.06 34.57 635.79 32.91 620.87 C 30.51 601.01 30.36 580.96 30.75 561.00 C 31.28 534.62 32.92 508.26 35.65 482.03 C 36.90 471.43 37.84 460.75 40.24 450.33 C 45.18 429.65 54.39 410.38 61.40 390.38 C 69.69 367.42 74.89 342.21 68.91 318.04 C 78.55 308.63 87.67 298.72 96.90 288.92 C 138.20 243.74 177.04 196.41 217.47 150.47 C 222.71 144.38 228.28 138.57 233.19 132.20 C 243.06 119.74 251.56 106.12 262.98 94.95 C 268.50 89.59 274.79 84.75 282.13 82.18 C 290.08 79.64 298.49 79.40 306.73 78.43 C 317.43 77.34 328.26 75.09 337.72 69.75 C 349.75 63.13 359.85 53.57 371.79 46.81 C 380.08 42.05 389.71 40.69 399.05 39.55 C 417.55 37.48 436.24 36.90 454.56 33.43 C 470.80 30.33 486.63 25.49 502.74 21.84 C 525.72 16.47 549.50 12.99 573.10 15.57 C 580.75 16.50 588.53 17.43 595.72 20.37 C 605.38 24.28 614.51 29.32 623.54 34.50 C 640.35 44.34 656.60 55.15 672.34 66.64 C 685.24 76.25 698.11 86.06 709.40 97.57 C 712.76 101.24 716.89 104.97 717.41 110.22 C 718.76 119.21 716.35 129.25 721.72 137.26 C 727.84 146.34 735.89 153.95 741.77 163.21 C 748.24 172.70 752.49 184.25 750.97 195.87 C 754.63 194.35 758.71 193.53 762.61 194.60 C 770.68 196.62 777.24 202.28 782.76 208.26 C 794.67 221.97 803.25 238.79 806.77 256.63 C 802.19 254.75 798.52 251.30 795.50 247.47 C 787.87 237.18 785.36 223.90 776.81 214.21 C 772.77 209.58 767.01 206.82 761.03 205.76 C 761.07 219.00 766.12 231.71 773.40 242.60 C 784.99 260.04 800.27 274.61 812.27 291.75 C 821.84 304.88 828.44 319.89 833.79 335.15 C 846.41 371.72 853.89 409.84 866.66 446.36 C 878.12 478.46 889.52 510.64 898.21 543.62 C 904.86 569.24 910.06 595.47 910.17 622.03 C 910.50 655.71 907.18 689.37 908.69 723.04 C 909.14 735.39 911.39 747.55 913.13 759.75 C 914.58 770.57 915.72 781.65 913.58 792.46 C 911.91 800.00 908.43 806.98 904.67 813.68 C 898.29 824.89 891.12 835.64 885.16 847.09 C 866.56 882.19 864.16 923.06 847.63 958.97 C 854.55 958.97 861.47 959.13 868.39 958.88 C 873.58 938.90 881.43 919.73 890.00 900.99 C 906.61 865.24 925.56 830.05 934.42 791.34 C 936.11 791.19 937.82 791.04 939.53 790.88 C 939.28 772.20 939.88 753.46 939.24 734.83 C 931.71 729.71 925.20 722.83 921.81 714.26 C 915.73 699.39 916.82 682.88 918.66 667.28 C 920.64 649.87 924.68 632.61 924.25 615.00 C 924.31 602.66 924.07 590.32 924.51 578.00 C 924.26 540.77 924.44 503.38 919.37 466.42 C 916.54 445.25 908.68 425.09 898.79 406.28 C 883.92 377.97 864.52 352.43 847.70 325.32 C 838.46 310.32 830.19 294.53 825.42 277.49 C 819.40 257.44 817.79 236.35 811.36 216.42 C 808.06 205.84 802.39 196.13 795.41 187.56 C 782.22 171.19 765.91 157.67 752.56 141.44 C 740.78 126.91 729.07 112.31 716.78 98.20 C 693.61 71.70 668.60 46.11 638.44 27.56 C 620.24 16.40 599.64 8.33 578.12 7.47 C 578.03 5.80 577.95 4.13 577.87 2.46 C 561.58 2.54 545.29 2.49 529.00 2.49 C 525.45 2.40 522.16 3.90 518.77 4.67 M 598.46 165.42 C 595.72 177.93 590.57 189.86 583.61 200.60 C 575.56 212.92 565.45 223.72 554.97 233.98 C 540.83 248.25 525.58 262.04 515.87 279.90 C 507.40 295.03 504.48 312.87 506.41 330.02 C 506.87 337.14 510.09 343.62 513.04 349.98 C 518.67 361.04 525.13 371.67 532.07 381.96 C 540.88 394.90 550.28 407.54 561.33 418.68 C 576.18 433.35 595.70 442.25 615.42 448.32 C 657.38 460.78 701.62 461.55 745.04 460.30 C 755.83 456.17 765.84 450.01 775.08 443.08 C 790.30 431.37 802.40 415.04 806.99 396.20 C 812.35 375.63 809.33 353.87 802.90 333.91 C 791.96 300.82 772.25 271.44 750.24 244.74 C 733.11 223.69 715.60 202.75 695.19 184.77 C 684.56 175.68 672.84 166.85 658.84 163.96 C 639.15 159.40 617.59 157.70 598.46 165.42 M 155.43 341.44 C 138.18 359.79 127.29 384.05 125.23 409.17 C 124.50 418.20 124.23 427.48 126.77 436.27 C 129.99 447.53 136.22 457.56 140.73 468.30 C 147.56 483.17 149.46 500.25 145.32 516.15 C 156.14 528.94 168.89 540.16 183.22 548.87 C 199.95 558.92 219.35 565.12 238.99 564.59 C 251.19 564.64 263.26 561.93 274.71 557.85 C 283.33 554.95 290.40 549.01 297.33 543.33 C 317.34 526.01 334.86 506.02 351.44 485.44 C 365.09 468.04 378.22 450.05 388.28 430.29 C 394.50 418.28 397.22 404.83 398.79 391.49 C 399.67 382.00 399.74 371.66 394.82 363.16 C 390.76 356.14 382.19 353.10 374.41 353.63 C 375.80 361.25 378.13 368.66 379.46 376.29 C 381.82 389.53 381.90 403.58 377.50 416.42 C 371.26 432.09 361.36 445.94 351.38 459.41 C 337.03 478.18 321.32 495.91 304.45 512.45 C 292.56 523.71 280.44 535.03 266.21 543.30 C 258.92 547.70 250.22 548.09 242.00 549.14 C 225.08 550.49 207.38 548.12 192.46 539.63 C 180.06 532.67 170.26 521.53 164.33 508.66 C 155.04 488.98 153.60 466.61 155.12 445.19 C 161.75 445.51 168.47 446.03 175.04 444.80 C 184.71 443.31 194.25 439.22 201.08 432.07 C 209.39 423.79 213.49 411.55 211.94 399.93 C 210.55 388.54 203.91 377.87 194.18 371.75 C 184.21 365.14 171.96 363.36 160.23 363.58 C 178.71 341.95 200.17 321.06 227.63 311.62 C 246.45 305.24 267.69 304.93 286.15 312.70 C 302.63 319.71 315.13 333.17 326.18 346.83 C 338.03 361.14 348.97 376.98 365.15 386.80 C 366.98 387.84 369.67 390.00 371.41 387.63 C 373.20 386.31 373.09 383.75 372.04 382.01 C 368.24 375.35 361.55 371.05 357.10 364.90 C 355.96 363.57 356.00 361.78 355.89 360.15 C 360.51 356.98 365.75 355.02 370.91 352.95 C 374.80 351.27 379.13 347.90 378.95 343.28 C 353.66 313.83 315.49 297.02 277.01 294.99 C 232.56 292.69 186.05 308.40 155.43 341.44 M 633.40 635.57 C 631.37 636.65 628.81 637.83 628.48 640.41 C 625.96 652.45 626.75 664.86 627.39 677.06 C 628.73 700.58 631.33 724.18 629.27 747.75 C 629.15 751.78 626.32 754.96 623.92 757.95 C 614.45 768.67 600.80 774.54 587.26 778.25 C 564.80 784.22 541.10 784.77 518.16 781.52 C 501.23 778.87 484.10 774.08 470.00 763.99 C 462.21 758.56 456.61 750.47 453.31 741.65 C 449.27 731.61 447.58 720.57 441.64 711.36 C 438.00 705.39 431.80 701.56 425.26 699.47 C 419.54 709.58 416.97 721.55 418.89 733.07 C 421.53 750.50 431.65 765.83 443.69 778.30 C 455.17 789.68 468.71 799.12 483.76 805.10 C 495.17 809.48 507.40 810.96 519.46 812.29 C 540.88 814.16 562.57 814.73 583.93 811.86 C 602.95 809.23 620.32 799.23 633.81 785.81 C 643.25 776.42 651.67 765.94 659.17 754.98 C 657.48 728.97 660.89 702.95 659.68 676.94 C 659.16 666.78 657.92 656.46 654.01 646.99 C 652.14 642.87 650.03 638.39 645.82 636.19 C 642.18 633.80 637.23 633.42 633.40 635.57 Z"/>
<path fill="#000000" opacity="1.00" d=" M 518.77 4.67 C 522.16 3.90 525.45 2.40 529.00 2.49 C 545.29 2.49 561.58 2.54 577.87 2.46 C 577.95 4.13 578.03 5.80 578.12 7.47 C 599.64 8.33 620.24 16.40 638.44 27.56 C 668.60 46.11 693.61 71.70 716.78 98.20 C 729.07 112.31 740.78 126.91 752.56 141.44 C 765.91 157.67 782.22 171.19 795.41 187.56 C 802.39 196.13 808.06 205.84 811.36 216.42 C 817.79 236.35 819.40 257.44 825.42 277.49 C 830.19 294.53 838.46 310.32 847.70 325.32 C 864.52 352.43 883.92 377.97 898.79 406.28 C 908.68 425.09 916.54 445.25 919.37 466.42 C 924.44 503.38 924.26 540.77 924.51 578.00 C 924.07 590.32 924.31 602.66 924.25 615.00 C 924.68 632.61 920.64 649.87 918.66 667.28 C 916.82 682.88 915.73 699.39 921.81 714.26 C 925.20 722.83 931.71 729.71 939.24 734.83 C 939.88 753.46 939.28 772.20 939.53 790.88 C 937.82 791.04 936.11 791.19 934.42 791.34 C 925.56 830.05 906.61 865.24 890.00 900.99 C 881.43 919.73 873.58 938.90 868.39 958.88 C 861.47 959.13 854.55 958.97 847.63 958.97 C 864.16 923.06 866.56 882.19 885.16 847.09 C 891.12 835.64 898.29 824.89 904.67 813.68 C 908.43 806.98 911.91 800.00 913.58 792.46 C 915.72 781.65 914.58 770.57 913.13 759.75 C 911.39 747.55 909.14 735.39 908.69 723.04 C 907.18 689.37 910.50 655.71 910.17 622.03 C 910.06 595.47 904.86 569.24 898.21 543.62 C 889.52 510.64 878.12 478.46 866.66 446.36 C 853.89 409.84 846.41 371.72 833.79 335.15 C 828.44 319.89 821.84 304.88 812.27 291.75 C 800.27 274.61 784.99 260.04 773.40 242.60 C 766.12 231.71 761.07 219.00 761.03 205.76 C 767.01 206.82 772.77 209.58 776.81 214.21 C 785.36 223.90 787.87 237.18 795.50 247.47 C 798.52 251.30 802.19 254.75 806.77 256.63 C 803.25 238.79 794.67 221.97 782.76 208.26 C 777.24 202.28 770.68 196.62 762.61 194.60 C 758.71 193.53 754.63 194.35 750.97 195.87 C 752.49 184.25 748.24 172.70 741.77 163.21 C 735.89 153.95 727.84 146.34 721.72 137.26 C 716.35 129.25 718.76 119.21 717.41 110.22 C 716.89 104.97 712.76 101.24 709.40 97.57 C 698.11 86.06 685.24 76.25 672.34 66.64 C 656.60 55.15 640.35 44.34 623.54 34.50 C 614.51 29.32 605.38 24.28 595.72 20.37 C 588.53 17.43 580.75 16.50 573.10 15.57 C 549.50 12.99 525.72 16.47 502.74 21.84 C 486.63 25.49 470.80 30.33 454.56 33.43 C 436.24 36.90 417.55 37.48 399.05 39.55 C 389.71 40.69 380.08 42.05 371.79 46.81 C 359.85 53.57 349.75 63.13 337.72 69.75 C 328.26 75.09 317.43 77.34 306.73 78.43 C 298.49 79.40 290.08 79.64 282.13 82.18 C 274.79 84.75 268.50 89.59 262.98 94.95 C 251.56 106.12 243.06 119.74 233.19 132.20 C 228.28 138.57 222.71 144.38 217.47 150.47 C 177.04 196.41 138.20 243.74 96.90 288.92 C 87.67 298.72 78.55 308.63 68.91 318.04 C 74.89 342.21 69.69 367.42 61.40 390.38 C 54.39 410.38 45.18 429.65 40.24 450.33 C 37.84 460.75 36.90 471.43 35.65 482.03 C 32.92 508.26 31.28 534.62 30.75 561.00 C 30.36 580.96 30.51 601.01 32.91 620.87 C 34.57 635.79 46.28 647.06 49.23 661.59 C 52.86 677.64 49.58 694.44 53.83 710.41 C 63.21 746.71 81.97 779.87 90.45 816.45 C 92.78 826.35 94.06 836.47 94.39 846.63 C 115.97 877.68 141.70 906.29 172.42 928.56 C 189.21 940.89 207.67 950.75 226.79 958.92 C 214.80 959.09 202.81 958.98 190.81 958.97 C 190.76 957.26 190.71 955.56 190.67 953.87 C 175.30 952.59 160.35 946.52 148.78 936.26 C 126.68 917.25 114.89 888.08 89.39 872.74 C 95.06 902.20 103.00 931.36 114.81 958.99 C 109.59 959.01 104.36 959.01 99.14 958.98 C 85.96 916.96 77.30 873.56 61.74 832.29 C 53.77 811.35 43.78 790.91 29.61 773.43 C 27.38 769.94 22.95 767.55 22.53 763.17 C 18.88 724.90 11.69 687.07 3.67 649.51 C 3.03 646.72 2.38 643.90 2.48 641.02 C 2.55 550.19 2.43 459.36 2.54 368.54 C 5.48 366.68 8.81 364.42 12.46 365.55 C 15.53 367.66 16.11 371.67 17.04 375.00 C 21.40 391.36 21.58 408.42 21.59 425.23 C 21.43 454.15 19.16 483.00 16.94 511.83 C 15.59 531.87 13.21 551.90 13.12 572.00 C 18.78 569.45 22.84 564.10 23.97 558.01 C 26.49 545.03 22.24 532.03 22.74 519.00 C 23.34 495.71 18.75 471.85 25.17 449.01 C 29.94 431.75 39.05 416.17 45.67 399.63 C 48.28 392.74 50.56 385.40 49.88 377.95 C 49.30 372.77 47.11 367.64 43.18 364.13 C 42.16 371.75 45.38 379.58 43.01 387.05 C 41.28 390.89 36.54 390.42 33.17 389.50 C 31.78 383.21 32.11 376.67 32.66 370.29 C 34.99 350.72 43.00 332.51 48.97 313.90 C 55.74 293.96 60.00 272.93 58.59 251.79 C 63.03 257.21 66.40 263.83 66.72 270.93 C 66.98 278.02 65.19 284.96 63.99 291.89 C 112.01 243.69 156.04 191.69 198.82 138.83 C 211.94 122.40 225.09 105.87 240.47 91.45 C 256.25 76.54 274.81 64.17 295.56 57.43 C 312.08 52.96 329.56 53.84 346.02 49.03 C 358.90 45.36 370.14 37.85 382.21 32.32 C 391.88 27.85 402.39 25.82 412.72 23.56 C 447.89 16.28 483.93 13.64 518.77 4.67 M 863.38 370.22 C 865.12 381.34 867.48 392.38 870.68 403.17 C 879.79 434.25 894.21 463.43 903.68 494.39 C 904.76 476.94 902.56 459.27 897.40 442.57 C 889.55 416.92 874.38 394.49 863.38 370.22 M 18.24 639.69 C 21.67 665.60 25.63 691.46 30.70 717.11 C 35.41 739.78 40.86 762.49 50.21 783.76 C 55.63 795.66 62.34 807.76 73.16 815.57 C 56.25 775.21 49.19 731.77 37.11 689.92 C 32.07 672.75 26.42 655.64 18.24 639.69 Z"/>
<path fill="#000000" opacity="1.00" d=" M 598.46 165.42 C 617.59 157.70 639.15 159.40 658.84 163.96 C 672.84 166.85 684.56 175.68 695.19 184.77 C 715.60 202.75 733.11 223.69 750.24 244.74 C 772.25 271.44 791.96 300.82 802.90 333.91 C 809.33 353.87 812.35 375.63 806.99 396.20 C 802.40 415.04 790.30 431.37 775.08 443.08 C 765.84 450.01 755.83 456.17 745.04 460.30 C 701.62 461.55 657.38 460.78 615.42 448.32 C 595.70 442.25 576.18 433.35 561.33 418.68 C 550.28 407.54 540.88 394.90 532.07 381.96 C 525.13 371.67 518.67 361.04 513.04 349.98 C 510.09 343.62 506.87 337.14 506.41 330.02 C 504.48 312.87 507.40 295.03 515.87 279.90 C 525.58 262.04 540.83 248.25 554.97 233.98 C 565.45 223.72 575.56 212.92 583.61 200.60 C 590.57 189.86 595.72 177.93 598.46 165.42 M 611.45 175.97 C 611.53 176.68 611.69 178.10 611.76 178.81 C 616.87 183.85 625.54 181.06 629.19 175.58 C 623.41 174.41 616.97 173.24 611.45 175.97 M 644.19 175.34 C 617.31 200.31 585.79 219.82 559.80 245.80 C 547.21 258.23 535.71 272.19 528.44 288.44 C 522.49 301.83 519.82 316.98 522.39 331.49 C 526.79 346.65 535.12 360.30 543.43 373.58 C 552.87 387.73 562.82 402.12 576.76 412.23 C 591.15 422.94 607.75 430.32 624.72 435.93 C 645.86 442.80 667.87 446.83 690.02 448.46 C 708.76 448.98 728.01 449.64 746.08 443.74 C 760.13 439.39 773.47 431.19 781.75 418.78 C 791.83 404.02 794.21 385.38 792.58 367.93 C 790.32 344.71 782.03 322.43 770.87 302.08 C 762.61 287.51 753.02 273.48 740.84 261.89 C 740.14 270.96 742.05 280.17 740.09 289.15 C 739.29 293.17 736.28 296.88 732.03 297.39 C 719.31 297.78 706.55 297.47 693.89 296.14 C 681.37 294.50 667.92 291.60 658.70 282.31 C 656.82 280.22 654.17 278.15 654.30 275.06 C 653.94 263.06 653.77 250.81 657.03 239.15 C 659.04 231.85 663.02 224.65 669.64 220.61 C 677.18 215.92 686.52 215.21 695.14 216.39 C 693.80 207.49 689.83 198.92 683.51 192.47 C 673.21 181.86 658.37 177.62 644.19 175.34 Z"/>
<path fill="#ffffff" opacity="1.00" d=" M 611.45 175.97 C 616.97 173.24 623.41 174.41 629.19 175.58 C 625.54 181.06 616.87 183.85 611.76 178.81 C 611.69 178.10 611.53 176.68 611.45 175.97 Z"/>
<path fill="#ffffff" opacity="1.00" d=" M 644.19 175.34 C 658.37 177.62 673.21 181.86 683.51 192.47 C 689.83 198.92 693.80 207.49 695.14 216.39 C 686.52 215.21 677.18 215.92 669.64 220.61 C 663.02 224.65 659.04 231.85 657.03 239.15 C 653.77 250.81 653.94 263.06 654.30 275.06 C 654.17 278.15 656.82 280.22 658.70 282.31 C 667.92 291.60 681.37 294.50 693.89 296.14 C 706.55 297.47 719.31 297.78 732.03 297.39 C 736.28 296.88 739.29 293.17 740.09 289.15 C 742.05 280.17 740.14 270.96 740.84 261.89 C 753.02 273.48 762.61 287.51 770.87 302.08 C 782.03 322.43 790.32 344.71 792.58 367.93 C 794.21 385.38 791.83 404.02 781.75 418.78 C 773.47 431.19 760.13 439.39 746.08 443.74 C 728.01 449.64 708.76 448.98 690.02 448.46 C 667.87 446.83 645.86 442.80 624.72 435.93 C 607.75 430.32 591.15 422.94 576.76 412.23 C 562.82 402.12 552.87 387.73 543.43 373.58 C 535.12 360.30 526.79 346.65 522.39 331.49 C 519.82 316.98 522.49 301.83 528.44 288.44 C 535.71 272.19 547.21 258.23 559.80 245.80 C 585.79 219.82 617.31 200.31 644.19 175.34 Z"/>
<path fill="#000000" opacity="1.00" d=" M 155.43 341.44 C 186.05 308.40 232.56 292.69 277.01 294.99 C 315.49 297.02 353.66 313.83 378.95 343.28 C 379.13 347.90 374.80 351.27 370.91 352.95 C 365.75 355.02 360.51 356.98 355.89 360.15 C 356.00 361.78 355.96 363.57 357.10 364.90 C 361.55 371.05 368.24 375.35 372.04 382.01 C 373.09 383.75 373.20 386.31 371.41 387.63 C 369.67 390.00 366.98 387.84 365.15 386.80 C 348.97 376.98 338.03 361.14 326.18 346.83 C 315.13 333.17 302.63 319.71 286.15 312.70 C 267.69 304.93 246.45 305.24 227.63 311.62 C 200.17 321.06 178.71 341.95 160.23 363.58 C 171.96 363.36 184.21 365.14 194.18 371.75 C 203.91 377.87 210.55 388.54 211.94 399.93 C 213.49 411.55 209.39 423.79 201.08 432.07 C 194.25 439.22 184.71 443.31 175.04 444.80 C 168.47 446.03 161.75 445.51 155.12 445.19 C 153.60 466.61 155.04 488.98 164.33 508.66 C 170.26 521.53 180.06 532.67 192.46 539.63 C 207.38 548.12 225.08 550.49 242.00 549.14 C 250.22 548.09 258.92 547.70 266.21 543.30 C 280.44 535.03 292.56 523.71 304.45 512.45 C 321.32 495.91 337.03 478.18 351.38 459.41 C 361.36 445.94 371.26 432.09 377.50 416.42 C 381.90 403.58 381.82 389.53 379.46 376.29 C 378.13 368.66 375.80 361.25 374.41 353.63 C 382.19 353.10 390.76 356.14 394.82 363.16 C 399.74 371.66 399.67 382.00 398.79 391.49 C 397.22 404.83 394.50 418.28 388.28 430.29 C 378.22 450.05 365.09 468.04 351.44 485.44 C 334.86 506.02 317.34 526.01 297.33 543.33 C 290.40 549.01 283.33 554.95 274.71 557.85 C 263.26 561.93 251.19 564.64 238.99 564.59 C 219.35 565.12 199.95 558.92 183.22 548.87 C 168.89 540.16 156.14 528.94 145.32 516.15 C 149.46 500.25 147.56 483.17 140.73 468.30 C 136.22 457.56 129.99 447.53 126.77 436.27 C 124.23 427.48 124.50 418.20 125.23 409.17 C 127.29 384.05 138.18 359.79 155.43 341.44 Z"/>
<path fill="#ffffff" opacity="1.00" d=" M 863.38 370.22 C 874.38 394.49 889.55 416.92 897.40 442.57 C 902.56 459.27 904.76 476.94 903.68 494.39 C 894.21 463.43 879.79 434.25 870.68 403.17 C 867.48 392.38 865.12 381.34 863.38 370.22 Z"/>
<path fill="#000000" opacity="1.00" d=" M 633.40 635.57 C 637.23 633.42 642.18 633.80 645.82 636.19 C 650.03 638.39 652.14 642.87 654.01 646.99 C 657.92 656.46 659.16 666.78 659.68 676.94 C 660.89 702.95 657.48 728.97 659.17 754.98 C 651.67 765.94 643.25 776.42 633.81 785.81 C 620.32 799.23 602.95 809.23 583.93 811.86 C 562.57 814.73 540.88 814.16 519.46 812.29 C 507.40 810.96 495.17 809.48 483.76 805.10 C 468.71 799.12 455.17 789.68 443.69 778.30 C 431.65 765.83 421.53 750.50 418.89 733.07 C 416.97 721.55 419.54 709.58 425.26 699.47 C 431.80 701.56 438.00 705.39 441.64 711.36 C 447.58 720.57 449.27 731.61 453.31 741.65 C 456.61 750.47 462.21 758.56 470.00 763.99 C 484.10 774.08 501.23 778.87 518.16 781.52 C 541.10 784.77 564.80 784.22 587.26 778.25 C 600.80 774.54 614.45 768.67 623.92 757.95 C 626.32 754.96 629.15 751.78 629.27 747.75 C 631.33 724.18 628.73 700.58 627.39 677.06 C 626.75 664.86 625.96 652.45 628.48 640.41 C 628.81 637.83 631.37 636.65 633.40 635.57 Z"/>
<path fill="#ffffff" opacity="1.00" d=" M 18.24 639.69 C 26.42 655.64 32.07 672.75 37.11 689.92 C 49.19 731.77 56.25 775.21 73.16 815.57 C 62.34 807.76 55.63 795.66 50.21 783.76 C 40.86 762.49 35.41 739.78 30.70 717.11 C 25.63 691.46 21.67 665.60 18.24 639.69 Z"/>
</svg>